# xmcd CD database file generated by OrangeCD 5.2
#
# Track frame offsets:
#	150
#	11536
#	22623
#	35060
#	49272
#	60958
#	71567
#	82953
#	93564
#	106831
#	119040
#	131716
#	142542
#	156207
#	168888
#	180666
#	193667
#	207060
#	219971
#	232986
#	243593
#	256717
#	269808
#	281200
#	299826
#	317262
#	334046
#	348062
#
# Disc length: 4795 seconds
#
# Revision: 0
# Processed by: cddbd v1.5.1PL2 Copyright (c) Steve Scherf et al.
# Submitted via: OrangeCD 5.2
#
DISCID=8d12b91c
DTITLE=Various Artist - Try To Remember   Volume 2
DYEAR=2006
DGENRE=Dance
TTITLE0=Bo Diddley - Bo Diddley
TTITLE1=Shirley and Lee - Let The Good Times Roll
TTITLE2=The Del-Vikings - Come Go With Me
TTITLE3=The Five Satins - In The Still Of The Nite
TTITLE4=Jackie Wilson - Lonely Teardrops
TTITLE5=The Monotones - Book Of Love
TTITLE6=Dinah Washington and Brook Benton  - A Rockin' Good Way (To Mess Around A
TTITLE6=nd Fall In Love)
TTITLE7=Jonnie and Joe - Over The Mountain Across The Sea
TTITLE8=Buster Brown - Fannie Mae
TTITLE9=Marv Johnson - You've Got What It Takes
TTITLE10=Mary Wells - You Beat Me To The Bunch
TTITLE11=Fats Domino - Blueberry Hill
TTITLE12=Jackie Wilson - Baby Workout
TTITLE13=Martha Reeves and The Vandellas - Heat Wave
TTITLE14=The Temptations - Ain't Too Proud To Beg
TTITLE15=Jackie Wilson - Doggin' Around
TTITLE16=Wilson Pickett - 634-5789
TTITLE17=Gladys Knight and The Pips - I Heard It Through The Grapevine
TTITLE18=Martha Reeves and The Vandellas - Jimmy Mack
TTITLE19=Little Anthony and The Imperials - Tears On My Pillow
TTITLE20=Johnny Taylor - Who's Making Love
TTITLE21=The Isley Brothers - It's Your Thing
TTITLE22=Jr. Walker and The All Stars - What Does It Take (To Win Your Love)
TTITLE23=The Dells - Oh What A Night
TTITLE24=The Temptations - Just My Imagination (Running Away With Me)
TTITLE25=Al Green - Let's Stay Together
TTITLE26=Bill Doggett - Smokie   Part 2
TTITLE27=Bill Doggett - Honky Tonk
EXTD=
EXTT0=
EXTT1=
EXTT2=
EXTT3=
EXTT4=
EXTT5=
EXTT6=
EXTT7=
EXTT8=
EXTT9=
EXTT10=
EXTT11=
EXTT12=
EXTT13=
EXTT14=
EXTT15=
EXTT16=
EXTT17=
EXTT18=
EXTT19=
EXTT20=
EXTT21=
EXTT22=
EXTT23=
EXTT24=
EXTT25=
EXTT26=
EXTT27=
PLAYORDER=
